<?xml version="1.0" encoding="utf-8"?>
<!-- Generator: Adobe Illustrator 24.1.1, SVG Export Plug-In . SVG Version: 6.00 Build 0)  -->
<!DOCTYPE svg PUBLIC "-//W3C//DTD SVG 1.1//EN" "http://www.w3.org/Graphics/SVG/1.1/DTD/svg11.dtd" [
	<!ENTITY st0 "fill:#6DA8C6;">
	<!ENTITY st1 "fill:#FED5B7;">
	<!ENTITY st2 "fill:#F59F18;">
	<!ENTITY st3 "fill:#606060;">
	<!ENTITY st4 "fill:#396D83;">
	<!ENTITY st5 "fill:#C27709;">
	<!ENTITY st6 "fill:#FFFFFF;">
]>
<svg version="1.1" id="Capa_1" xmlns="http://www.w3.org/2000/svg" xmlns:xlink="http://www.w3.org/1999/xlink" x="0px" y="0px"
	 viewBox="0 0 100 100" style="enable-background:new 0 0 100 100;" xml:space="preserve">
<g>
	<path style="&st0;" d="M44,26.9c0,0.3,0,0.7-0.3,0.8c-0.1,0.1-0.3,0-0.5,0c-5.6,0.6-6.1-1.5-9-2.7c-0.4-0.2-0.8-0.3-1.1-0.7
		c-0.5-0.6-0.4-1.4-0.3-2.1c0.3-2.6,1.3-6.6,1.8-9.2c0-0.2,1.8,0.5,2.7,0.7c0.3,1.5,1.1,4.2,1.3,5.7c0,0.3,6,0.9,8,1
		C46.6,20.5,43.8,24.8,44,26.9z"/>
	<path style="&st0;" d="M46.5,19.2c-2.1,0.1-7.7,0.7-7.7,0.8c-0.6,2.4-0.2,4.7-0.6,7.1c0,0.1,0,0.2,0,0.2c0,0.1,0.1,0.1,0.2,0.1
		c1.8,0.6,3.7,1,5.6,1.3c0.1,0,0.3,0,0.4,0c0.1-0.1,0.2-0.2,0.2-0.4c0.4-3,1-6.1,2.8-8.6L46.5,19.2z"/>
	<path style="&st0;" d="M52.6,18.2c1.3,0.1,2.7,0.3,3.8,0.9c1,0.6,1.7,1.6,2.4,2.5c0.5,0.7,1,1.4,1.3,2.2c0.3,0.7,0.5,1.4,0.6,2.1
		c0.8,4.7-0.8,9-2.3,13.6c0,0.1-0.2,0.4-0.3,0.5c-0.1,0.1,0.3,0.4,0.1,0.5c-3.9,0.5-7.6-1.1-11.1-2.8c-0.1-0.1-0.3-0.1-0.4-0.3
		c-0.1-0.2-0.2-0.4-0.2-0.6c-0.6-2.3-1.9-4.4-2.7-6.6c-0.9-2.2-1.2-4.9,0.2-6.9c0.4-0.6,0.9-1,1.3-1.6c0.6-0.7,1.1-1.6,1.4-2.5
		c0-0.1,0.1-0.2,0.2-0.3c0.1-0.1,0.2-0.1,0.3-0.1c1.8-0.2,3.5-0.5,5.3-0.7L52.6,18.2z"/>
	<path d="M45.9,88c0.3,0.4,0.3,1,0,1.5c-0.3,0.4-0.8,0.7-1.3,0.8c-0.5,0.1-1,0.2-1.5,0.1c-0.8-0.1-1.6-0.4-2.3-0.3
		c-1,0.1-1.7,0.9-2.6,1.3c-1.6,0.8-3.7,0.6-4.9-0.7c-0.5-0.5-0.9-1.4-0.4-1.9c0.2-0.2,0.5-0.3,0.9-0.3c1-0.2,2.1-0.5,3-1
		c0.9-0.6,1.6-1.4,1.9-2.4c0-0.1,0.1-0.2,0.1-0.2c0.1,0,0.1,0,0.2,0c2.1,0.4,4.2,0.8,6.3,1.1L45.9,88z"/>
	<path d="M58.2,87.8c0.2,0.4,0.4,0.9,0.5,1.3c0.1,0.5-0.1,1-0.4,1.3c-0.3,0.3-0.8,0.4-1.1,0.6c-0.7,0.4-0.9,1.3-1.4,1.9
		c-0.8,1-2.1,1.4-3.4,1.5c-0.7,0-1.5,0-2.1-0.3c-0.6-0.3-1.1-1-1-1.8c0-0.3,0.2-0.6,0.3-0.9c1-1.8,2.7-3.4,2.9-5.5
		c0-0.3,0.1-0.7,0.4-0.8c0.1,0,0.3,0,0.4,0c1.3,0.2,2.5,0.3,3.8,0.5L58.2,87.8z"/>
	<path style="&st1;" d="M53.5,15.6c0,1.1,0.1,2.2,0.1,3.3c0,0.1,0,0.2,0,0.3c0,0.1-0.2,0.2-0.3,0.3c-1.1,0.9-2.5,1.4-3.9,1.4
		c-0.4,0-0.8-0.1-0.9-0.4c-0.1-0.2-0.1-0.3-0.1-0.5c-0.1-1.2-0.2-2.4-0.2-3.5c0-0.1,0-0.2,0-0.3c0.1-0.1,0.2-0.1,0.3-0.1
		c1.5-0.3,3.1-0.6,4.6-0.9L53.5,15.6z"/>
	<path style="&st2;" d="M56.9,62.9c0.1,1.8,1.2,3.5,1.6,5.3c0.3,1.2,0.2,2.4,0.2,3.6c-0.1,3.3-0.2,6.6-0.3,9.9c0,0.3,0,0.5,0.1,0.8
		c0.1,0.4,0.5,0.7,0.6,1.1c0.4,1.1-1,2.2-0.8,3.4c0,0.2,0.1,0.4-0.1,0.5c-0.1,0.1-0.2,0.1-0.3,0.1c-2,0.2-4-0.1-5.8-0.9
		c-0.1-0.1-0.2-0.1-0.3-0.2c-0.1-0.1-0.1-0.3-0.1-0.4c0-0.8,0.2-1.5,0.4-2.3c0.1-0.2,0.1-0.4,0.1-0.6c-0.1-0.2-0.2-0.3-0.4-0.5
		c-0.8-0.8-0.8-2.1-0.7-3.3c0.3-3.9,0.8-7.9,0-11.7c-0.2-0.9-0.5-1.9-0.7-2.8c-0.2-1.3-0.3-2.7-0.3-4c2.2,0.3,4.5,0.3,6.7,0.2
		c0,0.3,0,0.7,0,1L56.9,62.9z"/>
	<path style="&st2;" d="M48.1,62.4c0.2,0.8,0,2.6-0.3,3.3c-0.1,0.3-0.3,0.6-0.4,0.9c-0.1,0.4-0.1,0.7-0.1,1.1
		c0.1,6.4-0.2,12.9-1.1,19.3c0,0.1,0,0.3-0.1,0.4c-0.1,0.1-0.2,0.2-0.4,0.3c-1.5,0.6-3.3,0.1-4.8-0.5c-1-0.4-2.1-0.8-3.1-1.1
		c-0.1,0-0.2-0.1-0.3-0.2c-0.1-0.1,0-0.3,0.1-0.4c0.6-1.3,1.1-2.6,1.4-4c0.6-3-0.1-6.1,0.3-9.1c0.2-1.7,0.7-3.3,1-5
		c0.4-2.7,0.2-5.6,0.9-8.2c0-0.1,0-0.1,0.1-0.2c0.1-0.1,0.2,0,0.2,0c2,0.2,4,0.8,5.9,0.4c0.1,0,0.3,0,0.4,0.1
		c0.1,0.1,0.1,0.2,0.1,0.3c0.1,1,0.2,2.1,0.1,3.1L48.1,62.4z"/>
	<path style="&st3;" d="M52.1,24.8l0.7,0.1c0.8,0.2,1.3,1,1.1,1.8c-0.1,0.4-0.3,0.9-0.3,1.1c-0.3,4.1,0.7,8.6,4.1,10.9
		c0.3,0.2,0.7,0.4,0.8,0.8c0.1,0.2,0.1,0.5,0.1,0.8C58,47.5,58.2,54.8,59.1,62c0,0.3,0.1,0.6-0.1,0.8C58.8,63,58.6,63,58.3,63
		c-5.9,0.5-12.1,1-17.7-1.1c-0.2-0.1-0.5-0.2-0.7-0.4c-0.1-0.2-0.1-0.5-0.1-0.7C40,54.4,40.7,48,42,41.7c0.4-1.7,0.7-3.3,1-5
		c0.3-2.3,0.3-4.6,0.1-7c-0.1-1.7-0.4-3.6,0.3-5.2c0.7-1.6,2.8-4.4,3.5-6c0.4,0.1,1.1-0.4,1.3-0.1c-0.6,1-3.1,5.8-3.1,5.8
		s5.7,0,5.5,0.2c-0.1,0.1,2.5-4.3,4.2-5.9l1,0.3C55.8,18.8,52.9,22.5,52.1,24.8z"/>
	<path style="&st2;" d="M38.8,17c0.6-1.7,0.4-5.4,1.9-6.4c0.3-0.2,0.6-0.3,0.9-0.6c0.2-0.2,0.8-1.1,0.6-1.4
		c-0.2-0.4-1.3,0.1-1.8,0.2c0.1-0.7,0-1.4-0.1-2.1c0-0.1-0.1-0.3-0.1-0.4c-0.1-0.1-0.3-0.2-0.4-0.2c-0.8-0.2-1.5-0.1-2.3,0.1
		c-0.2,0.1-0.4,0.1-0.6,0.3c-0.2,0.2-0.4,0.5-0.5,0.8C36,8.1,35.9,9,35.5,9.8c-0.6,1.1-1.6,4.1-1.9,5.3c0,0.1,0,0.2,0,0.3
		c0,0.1,0.1,0.2,0.2,0.3c0.9,0.9,2.2,1.4,3.5,1.5L38.8,17z"/>
	<path style="&st0;" d="M59.6,31.8c-1.6-0.7-3.3-0.9-5-0.8c-0.1,0-0.3,0-0.4,0.1c-0.1,0.1-0.1,0.2-0.1,0.4c0,1,0.1,2,0.2,2.9
		c0.1,0.3,0.1,0.5,0,0.8c-0.1,0.2-0.2,0.4-0.4,0.5c-1.4,1.4-2.6,2.9-4.3,3.9c-0.1,0-0.6-0.1-0.6,0c0,0.1,0,0.2,0.1,0.2
		c0.4,0.9,0.9,1.7,1.3,2.6c0.1,0.2,0.2,0.3,0.3,0.4c0.2,0.1,0.4,0,0.6,0c2-0.7,4-1.7,5.7-3c0.5-0.4,1.1-0.9,1.4-1.5
		c0.2-0.4,0.3-0.9,0.5-1.3c0.4-1.7,0.7-3.4,0.8-5.1L59.6,31.8z"/>
	<path d="M42.9,40.1c-0.3-0.5-1.5-2.2-1.7-2.3c-0.3-0.1-0.5,0.4-0.5,0.8c0,0.9,0.3,1.8,0.6,2.7c0.6,1.6,1.2,3.1,1.9,4.6
		c0.2,0.5,0.6,1,1.1,0.9c0.4,0,0.6-0.4,0.7-0.8c0.1-0.4,0-0.7-0.2-1.1C44.4,43.3,43.7,41.7,42.9,40.1L42.9,40.1z"/>
	<path d="M41.1,39.1c-1-2.1-1.9-4.3-2.9-6.4c-0.4-0.9-0.8-1.7-1.3-2.5c-0.1-0.1-0.2-0.3-0.4-0.4c-0.2-0.1-0.4,0-0.6,0
		c-0.9,0.3-1.8,0.9-2.8,0.6c-0.2-0.1-0.4-0.2-0.4-0.4c0-0.1,0.1-0.2,0.2-0.3c0.8-0.6,1.8-1,2.8-1.1c0.3,0,0.7,0,1,0.1
		c0.2,0.1,0.4,0.4,0.6,0.6c1.5,2.3,3.2,6.8,4.1,9.4L41.1,39.1z"/>
	<g>
		<path d="M44.1,46.7c1.6,3.4,3.2,6.7,4.8,10c1.7,3.4,3.4,6.7,5.3,10c1.8,3.2,3.8,6.3,6,9.3c1.1,1.5,2.3,3,3.6,4.4
			c1.3,1.3,2.7,2.5,4.3,3.5c3.1,1.9,6.5,3.2,9.9,4.3c0.4,0.1,0.8,0.3,1.3,0.4c0.3,0.1,0.5-0.1,0.6-0.3c0.1-0.3-0.1-0.5-0.3-0.6
			c-3.4-1.1-6.8-2.3-9.9-4c-1.6-0.9-3-1.9-4.3-3.1c-1.3-1.2-2.5-2.6-3.6-4.1c-2.2-2.9-4.2-6-6-9.2c-1.9-3.2-3.7-6.6-5.4-9.9
			c-1.7-3.3-3.2-6.6-4.8-10c-0.2-0.4-0.4-0.8-0.6-1.2c-0.1-0.2-0.5-0.3-0.7-0.2C44.1,46.1,44,46.4,44.1,46.7L44.1,46.7z"/>
	</g>
	<path style="&st2;" d="M52.2,42.6c-0.6-1-1.2-2.1-1.9-3.1c-0.1-0.2-0.2-0.4-0.5-0.4c-0.1,0-0.2,0-0.4,0c-1,0.3-2.1,0.6-3.1,0.9
		c-0.4,0.1-0.8,0.2-1.2,0.1c-0.3-0.1-0.5-0.3-0.7-0.5c-0.6-0.4-1.4-0.6-2.1-0.5c0.3,0.7,0.3,1.6-0.4,1.9c-0.3,0.1-0.7,0-1,0.1
		c-0.5,0.1-0.8,0.6-0.7,1.1c0.1,0.5,0.5,0.8,1,0.8c-0.3,0.1-0.5,0.4-0.4,0.7c0.1,0.3,0.4,0.5,0.7,0.5c-0.3,0.5,0.1,1.2,0.7,1.2
		l-0.2,0.3c0,0,0,0.1,0,0.1c0.5,0.4,1.2,0.2,1.9,0c2.6-0.8,5.3-1.4,8-1.7c0.4,0,0.7-0.5,0.5-0.9L52.2,42.6z"/>
	<path d="M51.5,5.1c1.2,1.1,2.5,2.2,3.1,3.8c0.2,0.7,0.4,1.4,0.4,2.1c0.2,1.3,0.3,2.7-0.1,4c-0.4,1.3-1.3,2.3-2.1,3.3
		c-1,1.2-2.2,2.5-3.7,2.8c-1.1,0.2-2.3-0.2-3.2-0.8c-0.9-0.6-1.7-1.5-2.3-2.5c-0.6-0.9-1.2-1.8-1.4-2.8c-0.2-1-0.2-2-0.1-3.1
		c0.1-1.2,0.1-2.4,0.5-3.5s1-2.2,1.9-2.9C45,5,45.6,4.8,46.2,4.5c0.8-0.3,1.6-0.6,2.5-0.7c0.9-0.1,1.8,0.1,2.4,0.8L51.5,5.1z"/>
	<path style="&st3;" d="M45.8,9.9c0,1.2,0,2.4,0.1,3.6c0,0.1,0,0.2-0.1,0.3c-0.1,0.1-0.2,0-0.3,0c-1-0.1-2,0.4-3,0.3
		c0,0-0.1,0-0.1,0c0,0,0-0.1,0-0.1c0.1-1.2,0.1-2.4,0.2-3.6c0-0.1,0-0.1,0-0.2c0-0.1,0.1-0.1,0.2-0.1c0.9-0.3,1.8-0.5,2.8-0.5
		L45.8,9.9z"/>
	<path style="&st3;" d="M46.1,9c-1.4,0-2.8,0-4,0.7c-0.1,0.1-3.2-0.7-4.4-1.3C38.4,8,39.2,7.7,40,7.5c0.4-0.1,0.8-0.2,1.2-0.2
		c0.5,0,0.9,0.2,1.3,0.3l1.8,0.6C44.9,8.4,45.5,8.7,46.1,9L46.1,9z"/>
	<path style="&st2;" d="M40.7,7.8c0,0.1,0,0.2-0.1,0.3c-0.1,0.1-0.3,0-0.4-0.1c-0.5-0.3-0.9-0.7-1.1-1.2c0.3,0.2,0.5,0.6,0.5,1
		c0,0.1,0,0.1,0,0.2c-0.1,0.1-0.2,0.2-0.4,0.2c-0.2,0-0.3-0.1-0.5-0.2c-0.4-0.2-0.7-0.6-0.8-1c0.2,0.2,0.3,0.3,0.4,0.6
		s0,0.5-0.2,0.6c-0.3,0.1-0.6,0-0.8-0.2c-0.2-0.2-0.3-0.5-0.5-0.7c0.1,0.2,0.2,0.3,0.2,0.5c0,0.2-0.1,0.4-0.3,0.4
		c-0.2,0-0.3,0-0.4-0.1c-0.4-0.3-0.4-0.9-0.2-1.3C36.1,6.4,36.5,6.1,37,6c0.5-0.2,1-0.2,1.5-0.2c0.3,0,0.7,0,1,0
		c0.3,0.1,0.7,0.2,0.9,0.5C40.3,6.2,40.8,7.5,40.7,7.8z"/>
	<g>
		<path style="&st4;" d="M54.4,35.4c0.5-0.9,0.4-2,0.4-3c0-1.1,0-2.3,0-3.4c0-1.1-0.1-2.2-0.1-3.3c0-1,0.1-2.1,0.4-3
			c0.3-0.9,0.9-1.7,1.8-2.1c0.1-0.1,0-0.3-0.1-0.2c-0.8,0.4-1.4,1.1-1.7,1.8c-0.4,0.9-0.6,1.9-0.6,2.8c0,1.1,0,2.2,0.1,3.3
			c0,1.1,0,2.3,0,3.4c0,0.6,0,1.2,0,1.8c0,0.6-0.1,1.1-0.4,1.7C54.1,35.4,54.3,35.6,54.4,35.4L54.4,35.4z"/>
	</g>
	<g>
		<path style="&st4;" d="M55.3,20.2c0.4,0.1,0.7,0.3,1,0.5c0.1,0,0.1,0.1,0.2,0c0,0,0.1-0.1,0-0.2c-0.3-0.3-0.7-0.5-1.1-0.6
			C55.2,19.9,55.1,20.1,55.3,20.2L55.3,20.2z"/>
	</g>
	<g>
		<path style="&st4;" d="M44.9,20.2c-1.3,1.5-2.2,3.3-2.5,5.3c-0.1,0.5-0.1,1.1-0.1,1.7c0,0.2,0.2,0.2,0.2,0c0-1.9,0.5-3.8,1.6-5.5
			c0.3-0.5,0.6-0.9,1-1.3C45.2,20.2,45.1,20,44.9,20.2L44.9,20.2z"/>
	</g>
	<g>
		<path style="&st4;" d="M38.6,19.4c-0.4,0.4-0.7,0.8-1.1,1.1c-0.4,0.4-0.7,0.8-1,1.2c-0.1,0.1,0.1,0.3,0.2,0.1
			c0.2-0.5,0.6-0.8,0.9-1.2c0.4-0.4,0.7-0.7,1.1-1.1C38.8,19.5,38.7,19.3,38.6,19.4L38.6,19.4z"/>
	</g>
	<g>
		<path style="&st4;" d="M38.7,19.9c-0.3,0.4-0.6,0.9-0.8,1.3c-0.2,0.5-0.5,0.9-0.6,1.4c0,0.2,0.2,0.2,0.2,0.1
			c0.1-0.5,0.4-1,0.6-1.4c0.2-0.4,0.5-0.9,0.8-1.3C39,19.9,38.8,19.8,38.7,19.9L38.7,19.9z"/>
	</g>
	<g>
		<path style="&st4;" d="M54.6,35.4C54.6,35.5,54.6,35.4,54.6,35.4C54.7,35.4,54.7,35.4,54.6,35.4c0.1,0.1,0.2,0.1,0.2,0.1
			c0.1,0.1,0.2,0.1,0.3,0.2c0.2,0.1,0.4,0.3,0.5,0.4c0.3,0.3,0.6,0.7,0.8,1.1c0.1,0.1,0.3,0,0.2-0.1c-0.3-0.5-0.6-0.9-1-1.3
			c-0.2-0.2-0.4-0.3-0.7-0.5c-0.2-0.1-0.5-0.3-0.6,0C54.4,35.5,54.6,35.5,54.6,35.4L54.6,35.4z"/>
	</g>
	<g>
		<path style="&st4;" d="M54.6,34.9c0.9,0.2,1.7,0.6,2.4,1c0.1,0.1,0.3-0.1,0.1-0.2c-0.8-0.5-1.6-0.8-2.5-1.1
			C54.5,34.6,54.4,34.9,54.6,34.9L54.6,34.9z"/>
	</g>
	<g>
		<path style="&st4;" d="M58,39.2c1.2-1.5,2-3.3,2.4-5.2c0.1-0.5,0.1-1.1,0.2-1.6c0-0.2-0.2-0.2-0.2,0c0,1.9-0.6,3.7-1.5,5.3
			c-0.3,0.5-0.6,0.9-0.9,1.3C57.7,39.2,57.9,39.3,58,39.2L58,39.2z"/>
	</g>
	<g>
		<path style="&st4;" d="M59.9,26.2c0.2,1.1,0.3,2.3,0.3,3.5c0,0.2,0.2,0.2,0.2,0c0-1.2-0.1-2.4-0.3-3.5
			C60.1,26,59.8,26.1,59.9,26.2L59.9,26.2z"/>
	</g>
	<g>
		<path d="M44.8,26.2c-0.1,0-0.2,0-0.2,0c0-0.1,0,0,0,0c0,0,0,0.1,0,0.1c0,0.1,0,0.2,0,0.4c0,0.4,0,0.7,0.1,1.1
			c0,0.4,0.1,0.8,0.1,1.2c0,0.2,0,0.5,0.1,0.7c0.1,0.2,0.2,0.4,0.4,0.5c0.4,0.3,1,0.4,1.4,0.5c0.6,0.1,1.1,0.2,1.7,0.2
			c0.6,0,1.2,0,1.7-0.1c0.5-0.1,0.9-0.3,1.1-0.8c0.2-0.5,0.2-1,0.2-1.6c0-0.7,0-1.4-0.1-2c0-0.1-0.1-0.1-0.1-0.1
			c-0.7,0-1.5,0-2.2-0.1c-1.2,0-2.4-0.1-3.6-0.1c-0.3,0-0.5,0-0.8,0c-0.2,0-0.2,0.2,0,0.2c0.7,0,1.5,0,2.2,0.1
			c1.2,0,2.4,0.1,3.6,0.1c0.3,0,0.5,0,0.8,0c0,0-0.1-0.1-0.1-0.1c0.1,0.6,0.1,1.2,0.1,1.7c0,0.5,0,1-0.1,1.4c0,0.2-0.1,0.4-0.3,0.6
			c-0.1,0.2-0.3,0.3-0.6,0.4c-0.2,0.1-0.5,0.1-0.8,0.1c-0.3,0-0.5,0-0.8,0.1c-0.6,0-1.1,0-1.7-0.1c-0.3,0-0.5-0.1-0.8-0.2
			c-0.2-0.1-0.4-0.1-0.6-0.2c-0.2-0.1-0.4-0.2-0.5-0.4C45,29.5,45,29.3,45,29.1c0-0.4-0.1-0.8-0.1-1.1c0-0.4-0.1-0.8-0.1-1.2
			c0-0.1,0-0.3,0-0.4C44.8,26.3,44.8,26.2,44.8,26.2c0-0.2-0.2-0.1-0.2,0C44.5,26.4,44.8,26.4,44.8,26.2z"/>
	</g>
	<g>
		<path d="M50.7,24.5c-0.1,0.2,0,0.5,0.2,0.7c0.2,0.2,0.5,0.2,0.7,0.1c0.1-0.1,0.2-0.2,0.3-0.3c0-0.1,0-0.1,0-0.2
			c-0.1,0-0.1,0-0.2,0c0,0.1,0,0.1-0.1,0.1c0,0-0.1,0.1-0.1,0.1c0,0,0,0,0,0c0,0,0,0-0.1,0c0,0,0,0-0.1,0c0,0-0.1,0-0.1,0
			c0,0-0.1,0-0.1,0c0,0-0.1,0-0.1-0.1c0,0-0.1-0.1-0.1-0.1c0,0,0-0.1,0-0.1c0-0.1,0-0.1,0-0.2C51,24.4,50.7,24.4,50.7,24.5
			L50.7,24.5z"/>
	</g>
	<g>
		<path d="M43.6,24.9c0.3,0.4,1,0.4,1.3-0.1c0.1-0.1-0.1-0.3-0.2-0.1c0,0.1,0,0.1-0.1,0.1c0,0,0,0,0,0c0,0,0,0,0,0c0,0,0,0-0.1,0
			c0,0,0,0,0,0c0,0,0,0,0,0c0,0,0,0-0.1,0c-0.1,0-0.1,0-0.1,0c0,0,0,0-0.1,0c0,0,0,0,0,0c0,0,0,0,0,0c0,0-0.1,0-0.1,0c0,0,0,0,0,0
			c0,0,0,0,0,0c0,0,0,0-0.1,0c0,0,0,0,0,0c0,0,0,0,0,0c0,0,0,0,0,0c0,0,0,0,0,0c0,0,0,0,0,0c0-0.1-0.1-0.1-0.2,0
			C43.6,24.7,43.5,24.8,43.6,24.9L43.6,24.9z"/>
	</g>
	<g>
		<path d="M46.1,32.2c0.9,1.1,1.8,2.2,2.7,3.2c0.3,0.3,0.5,0.6,0.8,0.9c0.1,0.1,0.3-0.1,0.2-0.2c-0.9-1.1-1.8-2.2-2.7-3.3
			c-0.3-0.3-0.5-0.6-0.8-0.9C46.2,31.9,46,32.1,46.1,32.2L46.1,32.2z"/>
	</g>
	<g>
		<path d="M46.5,33.5c0.8,1.1,1.7,2.1,2.7,3c0.1,0.1,0.3-0.1,0.2-0.2c-0.9-0.9-1.8-1.9-2.6-3c0-0.1-0.1-0.1-0.2,0
			C46.5,33.3,46.5,33.4,46.5,33.5L46.5,33.5z"/>
	</g>
	<g>
		<path d="M43.5,37.1c2.3,0.3,4.5,0.2,6.8-0.1c0.6-0.1,1.3-0.1,1.9-0.2c0.2,0,0.2-0.3,0-0.2c-2.3,0.2-4.5,0.5-6.8,0.4
			c-0.6,0-1.3-0.1-1.9-0.1C43.3,36.8,43.3,37.1,43.5,37.1L43.5,37.1z"/>
	</g>
	<g>
		<path d="M42.8,10c0.1,1.4,0.2,2.8,0.2,4.2c0,0.2,0.2,0.2,0.2,0c0-1.4,0-2.8-0.2-4.2C43.1,9.8,42.8,9.8,42.8,10L42.8,10z"/>
	</g>
	<g>
		<path style="&st3;" d="M46.6,8.7c0.7,0.2,1.2,0.8,1.4,1.5c0.2,0.8,0.1,1.6-0.3,2.3c-0.2,0.4-0.5,0.8-0.9,1.1
			c-0.1,0.1,0.1,0.3,0.2,0.2c0.6-0.6,1.2-1.5,1.3-2.4c0.1-0.8,0-1.6-0.6-2.3c-0.3-0.3-0.7-0.6-1.1-0.7C46.5,8.4,46.4,8.7,46.6,8.7
			L46.6,8.7z"/>
	</g>
	<g>
		<path style="&st3;" d="M52.4,6.6c-0.2,0.9-0.4,1.8-0.7,2.6c-0.2,0.8-0.4,1.7-0.6,2.5c-0.3,1.6-0.6,3.2-0.2,4.8
			c0.1,0.4,0.2,0.9,0.4,1.2c0.2,0.3,0.4,0.7,0.8,0.7c0.2,0,0.2-0.2,0.1-0.2c-0.3-0.1-0.5-0.4-0.6-0.6c-0.2-0.3-0.3-0.7-0.4-1.1
			c-0.2-0.8-0.2-1.5-0.2-2.3c0.1-1.6,0.5-3.2,0.9-4.7c0.2-1,0.5-1.9,0.7-2.9C52.7,6.5,52.5,6.4,52.4,6.6L52.4,6.6z"/>
	</g>
	<g>
		<path style="&st3;" d="M51.7,14.6c0.9-0.1,1.8-0.2,2.6-0.1c0.2,0,0.2-0.2,0-0.2c-0.9,0-1.8,0-2.7,0.2
			C51.5,14.4,51.6,14.6,51.7,14.6L51.7,14.6z"/>
	</g>
	<g>
		<path style="&st3;" d="M52.3,13c0.7-0.1,1.5-0.2,2.3-0.2c0.2,0,0.2-0.2,0-0.2c-0.8,0-1.6,0.1-2.3,0.2C52.1,12.8,52.2,13,52.3,13
			L52.3,13z"/>
	</g>
	<g>
		<path style="&st3;" d="M52.6,11.6c0.6-0.1,1.2-0.2,1.9-0.1c0.2,0,0.2-0.2,0-0.2c-0.6,0-1.3,0-1.9,0.2
			C52.4,11.3,52.4,11.6,52.6,11.6L52.6,11.6z"/>
	</g>
	<g>
		<path style="&st5;" d="M52.3,83.3c1.3,0.1,2.5,0.2,3.8,0.3c0.2,0,0.2-0.2,0-0.2c-1.3-0.1-2.5-0.3-3.8-0.3
			C52.2,83.1,52.2,83.3,52.3,83.3L52.3,83.3z"/>
	</g>
	<g>
		<path style="&st5;" d="M52.3,83.9c1.1,0.2,2.2,0.3,3.3,0.5c0.2,0,0.2-0.2,0.1-0.2c-1.1-0.2-2.2-0.3-3.3-0.5
			C52.2,83.6,52.1,83.9,52.3,83.9L52.3,83.9z"/>
	</g>
	<g>
		<path style="&st5;" d="M52.2,85.4c1.5,0.5,3,1.1,4.6,1c0.4,0,0.9-0.1,1.3-0.2c0.2,0,0.1-0.3-0.1-0.2c-1.5,0.5-3.1,0.1-4.5-0.4
			c-0.4-0.1-0.8-0.3-1.2-0.4C52.1,85.2,52,85.4,52.2,85.4L52.2,85.4z"/>
	</g>
	<g>
		<path style="&st5;" d="M38.3,84.7c1.7,0.8,3.4,1.6,5.3,1.8c0.5,0.1,1,0.1,1.5,0.1c0.2,0,0.2-0.3,0-0.2c-1.8,0.1-3.6-0.5-5.3-1.2
			c-0.5-0.2-0.9-0.4-1.4-0.6C38.3,84.4,38.2,84.6,38.3,84.7L38.3,84.7z"/>
	</g>
	<g>
		<path style="&st5;" d="M40.7,83.8c0.7,0.4,1.5,0.7,2.2,1.1c0.1,0.1,0.3-0.1,0.1-0.2c-0.7-0.4-1.5-0.7-2.2-1.1
			C40.7,83.5,40.5,83.7,40.7,83.8L40.7,83.8z"/>
	</g>
	<g>
		<path style="&st5;" d="M42.1,83.7c0.6,0.3,1.3,0.6,2,0.6c0.2,0,0.2-0.2,0-0.2c-0.7-0.1-1.3-0.3-1.8-0.6
			C42.1,83.4,41.9,83.6,42.1,83.7L42.1,83.7z"/>
	</g>
	<g>
		<path style="&st5;" d="M43.7,66c1.1,0.7,2,1.6,2.5,2.7c0.1,0.1,0.3,0,0.2-0.1c-0.6-1.2-1.5-2.1-2.6-2.8
			C43.7,65.7,43.6,65.9,43.7,66L43.7,66z"/>
	</g>
	<g>
		<path style="&st5;" d="M45.1,65.7c0.6,0.4,1.2,1,1.5,1.7c0.1,0.1,0.3,0,0.2-0.1c-0.4-0.7-0.9-1.3-1.6-1.8
			C45,65.4,44.9,65.6,45.1,65.7L45.1,65.7z"/>
	</g>
	<g>
		<path style="&st5;" d="M51.5,68.3c0.7,1.1,1.3,2.2,2,3.3c0.1,0.1,0.3,0,0.2-0.1c-0.7-1.1-1.3-2.2-2-3.3
			C51.7,68,51.4,68.2,51.5,68.3L51.5,68.3z"/>
	</g>
	<g>
		<path style="&st5;" d="M52.7,68.7c0.8,0.8,1.5,1.6,2.1,2.5c0.1,0.1,0.3,0,0.2-0.1c-0.6-0.9-1.3-1.7-2.1-2.5
			C52.7,68.4,52.6,68.6,52.7,68.7L52.7,68.7z"/>
	</g>
	<g>
		<path d="M56.5,42.6c0.1,1.6,0.2,3.2,0.3,4.8c0.1,1.6,0.1,3.2,0.1,4.8c0,0.9,0,1.8,0,2.7c0,0.2,0.2,0.2,0.2,0c0-1.6,0-3.2,0-4.8
			c0-1.6-0.1-3.2-0.2-4.8c0-0.9-0.1-1.8-0.2-2.7C56.7,42.5,56.4,42.5,56.5,42.6L56.5,42.6z"/>
	</g>
	<g>
		<path d="M55.5,48.5c0.2,1.1,0.3,2.2,0.5,3.3c0,0.2,0.3,0.1,0.2-0.1c-0.2-1.1-0.3-2.2-0.5-3.3C55.7,48.3,55.5,48.4,55.5,48.5
			L55.5,48.5z"/>
	</g>
	<g>
		<path d="M41.8,55.3c0.1,1.2,0.2,2.4,0.3,3.6c0,0.2,0.3,0.2,0.2,0c-0.1-1.2-0.2-2.4-0.3-3.6C42,55.2,41.7,55.2,41.8,55.3L41.8,55.3
			z"/>
	</g>
	<g>
		<path d="M42.7,57.1c0,0.8,0,1.5,0,2.3c0,0.2,0.2,0.2,0.2,0c0-0.8,0-1.5,0-2.3C42.9,57,42.7,57,42.7,57.1L42.7,57.1z"/>
	</g>
	<g>
		<path style="&st5;" d="M41,43.2c0.5,0.1,1,0.1,1.5,0c0.2,0,0.1-0.3-0.1-0.2c-0.5,0.1-0.9,0.1-1.4,0C40.9,42.9,40.8,43.1,41,43.2
			L41,43.2z"/>
	</g>
	<g>
		<path style="&st5;" d="M41.4,44.4c0.4,0,0.9-0.1,1.3-0.2c0.2,0,0.1-0.3-0.1-0.2c-0.4,0.1-0.8,0.2-1.2,0.2
			C41.2,44.1,41.2,44.4,41.4,44.4L41.4,44.4z"/>
	</g>
	<g>
		<path style="&st5;" d="M42.1,45.4c0.3,0.1,0.7,0,1-0.2c0.1,0,0.1-0.1,0-0.2c0-0.1-0.1-0.1-0.2,0c-0.1,0.1-0.2,0.1-0.4,0.2
			c-0.1,0-0.3,0-0.4,0c-0.1,0-0.1,0-0.2,0.1C42,45.3,42,45.4,42.1,45.4L42.1,45.4z"/>
	</g>
	<g>
		<path style="&st5;" d="M42.2,42.6c0.4,1,0.8,2,1.2,3c0.1,0.1,0.3,0.1,0.2-0.1c-0.4-1-0.8-2-1.2-3C42.4,42.3,42.1,42.4,42.2,42.6
			L42.2,42.6z"/>
	</g>
	<g>
		<path style="&st5;" d="M49.5,39.7c0.7,1.2,1.4,2.5,2.1,3.7c0.1,0.1,0.3,0,0.2-0.1c-0.7-1.2-1.4-2.5-2.1-3.7
			C49.6,39.5,49.4,39.6,49.5,39.7L49.5,39.7z"/>
	</g>
	<g>
		<path style="&st5;" d="M49.4,41.2c0.4,0.6,0.7,1.2,1.1,1.9c0.1,0.1,0.3,0,0.2-0.1c-0.4-0.6-0.7-1.2-1.1-1.9
			C49.6,41,49.3,41.1,49.4,41.2L49.4,41.2z"/>
	</g>
	<g>
		<path style="&st5;" d="M35.7,7.7C35.8,8,36,8.3,36.2,8.5C36.4,8.8,36.7,9,37,8.9c0.3-0.1,0.4-0.4,0.4-0.6c0-0.3-0.1-0.7-0.2-0.9
			c-0.1-0.1-0.2-0.1-0.2,0C36.8,7.7,37,8,37.2,8.2c0.1,0.2,0.3,0.4,0.6,0.4C38,8.5,38.2,8.3,38.2,8c0.1-0.3,0-0.7-0.1-1
			c-0.1-0.1-0.3-0.1-0.2,0.1C38,7.4,38.1,7.8,38.3,8c0.2,0.2,0.5,0.3,0.8,0.3c0.3-0.1,0.5-0.3,0.5-0.6c0.1-0.3-0.1-0.7-0.2-1
			c0-0.1-0.2-0.1-0.2,0.1c0.1,0.6,0.5,1.2,1.1,1.3c0.2,0,0.2-0.2,0.1-0.2c-0.5-0.1-0.9-0.5-1-1.1c-0.1,0-0.2,0-0.2,0.1
			c0.1,0.2,0.2,0.5,0.2,0.8c0,0.2-0.2,0.4-0.4,0.5c-0.2,0-0.4-0.1-0.6-0.3c-0.2-0.2-0.2-0.5-0.3-0.7c-0.1,0-0.2,0-0.2,0.1
			C38,7.4,38,7.6,38,7.9c0,0.2-0.1,0.4-0.2,0.5c-0.2,0.1-0.3-0.1-0.4-0.3c-0.1-0.2-0.3-0.4-0.2-0.7c-0.1,0-0.2,0-0.2,0
			c0.1,0.2,0.2,0.5,0.2,0.7c0,0.2-0.1,0.5-0.3,0.5c-0.2,0.1-0.5-0.2-0.6-0.4C36.2,8.1,36,7.9,36,7.6C35.9,7.5,35.7,7.5,35.7,7.7
			L35.7,7.7z"/>
	</g>
	<g>
		<path style="&st5;" d="M40.1,9.2c-0.6,0.1-1.3,0.1-1.8,0.4c-0.5,0.2-0.9,0.6-1,1.1c0,0.2,0.2,0.2,0.2,0.1c0.3-1.1,1.6-1.3,2.6-1.4
			C40.3,9.4,40.3,9.2,40.1,9.2L40.1,9.2z"/>
	</g>
	<g>
		<path style="&st5;" d="M34,14.5c0.9,1,2.1,2.1,3.6,2c0.2,0,0.2-0.3,0-0.2c-1.4,0-2.6-0.9-3.5-1.9C34,14.3,33.8,14.4,34,14.5
			L34,14.5z"/>
	</g>
	<path style="&st5;" d="M31.5,30.3c0.1-1.6,0.2-3.1,0.3-4.7c0.1,1.2,0.4,2.3,0.8,3.4c0.6-1,1.7-3,1.7-3s-0.5,3-0.5,3.1
		c0,0.1,2.9,2.1,2.9,2.1s-1.8,0-2.7-0.2c0.4,1.4,1.1,4.3,1.1,4.3s-1.4-1.5-1.9-2.4c-0.2,1.7-0.8,5.2-0.8,5.2S32,36.3,32,35.3
		c0-0.8,0-1.6,0-2.3c-1.1,1.9-4,5.2-4,5.2s1.5-3.6,2.6-5.3c-1.4-0.7-2.9-1.3-4.4-1.8c1.3,0.3,2.6,0.5,3.9,0.8
		c-1.1-1.4-2.2-2.8-3.3-4.2c1.3,1,2.6,1.9,4,2.8c-0.6-1.5-1.2-3.1-1.8-4.6C29.9,26.9,31.5,30.3,31.5,30.3z"/>
	<path style="&st2;" d="M32,31.1c0.1-0.6,0.2-1.1,0.3-1.7c0.2,0.5,0.3,0.9,0.4,1.4c0.5-0.4,1.1-0.6,1.7-0.8c-0.3,0.3-0.6,0.7-0.8,1
		c0,0-0.1,0.1-0.1,0.1c0,0.1,0,0.1,0.1,0.2c0.2,0.4,0.4,0.9,0.7,1.3c-0.5-0.4-1-0.7-1.5-1.1c-0.1,0.7-0.1,1.4,0,2.1
		c-0.3-0.7-0.5-1.3-0.8-2c-0.3,0.6-0.7,1.1-1.1,1.6c0.1-0.6,0.2-1.2,0.3-1.8c0,0,0-0.1,0-0.1c0,0,0,0-0.1-0.1
		c-0.5-0.3-1-0.6-1.5-0.9L32,31.1z"/>
	<g>
		<path style="&st5;" d="M45.6,41c0.2,1,0.5,2,0.8,3.1c0,0.2,0.3,0.1,0.2-0.1c-0.3-1-0.6-2-0.8-3.1C45.8,40.7,45.5,40.8,45.6,41
			L45.6,41z"/>
	</g>
	<g>
		<path style="&st5;" d="M46.6,42.4c0.1,0.3,0.2,0.6,0.4,0.9c0,0.1,0.1,0.1,0.2,0.1c0.1,0,0.1-0.1,0.1-0.2c-0.1-0.3-0.2-0.6-0.4-0.9
			c0-0.1-0.1-0.1-0.2-0.1C46.6,42.3,46.6,42.4,46.6,42.4L46.6,42.4z"/>
	</g>
	<g>
		<path d="M44.1,10.5c0.7-0.1,1.4-0.2,2.2-0.2c0.2,0,0.2-0.3,0-0.2c-0.7,0.1-1.4,0.2-2.2,0.2C43.9,10.2,43.9,10.5,44.1,10.5
			L44.1,10.5z"/>
	</g>
	<g>
		<path d="M44.3,8.7c-1-0.4-2-0.7-3-1.1c-0.2-0.1-0.2,0.2-0.1,0.2c1,0.4,2,0.7,3,1.1C44.4,9,44.4,8.8,44.3,8.7L44.3,8.7z"/>
	</g>
	<g>
		<path d="M44.8,27.3c1.6,0.1,3.3,0.2,4.9,0.4c0.5,0,0.9,0.1,1.4,0.1c0.2,0,0.2-0.2,0-0.2c-1.6-0.2-3.3-0.3-4.9-0.4
			c-0.5,0-0.9-0.1-1.4-0.1C44.7,27,44.7,27.3,44.8,27.3L44.8,27.3z"/>
	</g>
	<g>
		<path style="&st6;" d="M49.5,92.5c1.2,0.6,2.5,1,3.8,0.7c0.6-0.1,1.1-0.4,1.5-0.9c0.2-0.3,0.4-0.5,0.6-0.8
			c0.2-0.2,0.4-0.4,0.7-0.6c0.6-0.4,1.2-0.7,1.9-1c0.1-0.1,0-0.3-0.1-0.2c-0.6,0.2-1.1,0.5-1.7,0.8c-0.3,0.2-0.5,0.3-0.7,0.5
			c-0.2,0.2-0.4,0.4-0.6,0.7c-0.2,0.3-0.4,0.5-0.6,0.7c-0.2,0.2-0.5,0.3-0.8,0.4c-0.6,0.2-1.2,0.2-1.8,0.2c-0.8-0.1-1.5-0.4-2.2-0.7
			C49.5,92.2,49.4,92.4,49.5,92.5L49.5,92.5z"/>
	</g>
	<g>
		<path style="&st6;" d="M32.8,89.4c0.5,0.7,1.2,1.2,2,1.3c0.8,0.2,1.7,0,2.5-0.3c0.8-0.3,1.6-0.8,2.5-1c1-0.2,2,0,3,0
			c1,0,2-0.1,2.8-0.7c0.1-0.1,0-0.3-0.1-0.2c-0.7,0.5-1.5,0.7-2.4,0.7c-1,0-1.9-0.2-2.9-0.1c-0.9,0.1-1.7,0.5-2.5,0.8
			c-0.8,0.3-1.5,0.7-2.4,0.6c-0.9-0.1-1.7-0.6-2.2-1.3C32.9,89.1,32.7,89.3,32.8,89.4L32.8,89.4z"/>
	</g>
	<g>
		<path style="&st5;" d="M30.1,37.9c-0.1,0.5-0.3,1.1-0.4,1.6c0,0.2,0.2,0.2,0.2,0.1c0.1-0.5,0.3-1.1,0.4-1.6
			C30.4,37.8,30.2,37.8,30.1,37.9L30.1,37.9z"/>
	</g>
	<g>
		<path style="&st5;" d="M30.7,39.1c-0.1,0.5-0.1,1-0.1,1.6c0,0.2,0.3,0.2,0.2,0c0-0.5,0-1,0-1.5c0-0.1,0-0.1-0.1-0.2
			C30.8,39,30.7,39,30.7,39.1L30.7,39.1z"/>
	</g>
	<g>
		<path style="&st5;" d="M34.2,38.2c0,0.6,0.1,1.2,0.1,1.9c0,0.2,0.3,0.2,0.2,0c0-0.6-0.1-1.2-0.1-1.9C34.4,38,34.2,38,34.2,38.2
			L34.2,38.2z"/>
	</g>
	<g>
		<path style="&st5;" d="M35.1,37.5c0.1,0.3,0.2,0.6,0.2,1c0,0.2,0.2,0.2,0.2,0c0-0.4-0.1-0.7-0.2-1c0-0.1-0.1-0.1-0.2-0.1
			C35.2,37.3,35.1,37.4,35.1,37.5L35.1,37.5z"/>
	</g>
	<g>
		<path style="&st5;" d="M26.7,35.1C26.1,36,25.6,37,25.2,38c-0.1,0.1,0.2,0.3,0.2,0.1c0.4-1,1-2,1.6-2.9
			C27,35.1,26.8,34.9,26.7,35.1L26.7,35.1z"/>
	</g>
	<g>
		<path style="&st5;" d="M26.8,38.5c-0.4,0.7-0.6,1.5-0.9,2.3c0,0.2,0.2,0.2,0.2,0.1c0.2-0.8,0.5-1.5,0.9-2.2
			C27.1,38.4,26.9,38.3,26.8,38.5L26.8,38.5z"/>
	</g>
	<g>
		<path style="&st5;" d="M27.3,41.3c-0.2,0.8-0.2,1.5-0.2,2.3c0,0.2,0.3,0.2,0.2,0c-0.1-0.8,0-1.5,0.1-2.3
			C27.6,41.2,27.4,41.1,27.3,41.3L27.3,41.3z"/>
	</g>
	<g>
		<path style="&st5;" d="M26.5,25.2c0.3,0.4,0.6,0.7,1,1c0.1,0,0.1,0,0.2,0c0,0,0.1-0.1,0-0.2c-0.4-0.3-0.7-0.7-1-1
			c0-0.1-0.1,0-0.2,0C26.5,25,26.5,25.1,26.5,25.2L26.5,25.2z"/>
	</g>
	<g>
		<path style="&st5;" d="M27.4,23.5c0.4,0.4,0.8,0.8,1,1.3c0,0.1,0.1,0.1,0.2,0c0.1,0,0.1-0.1,0-0.2c-0.2-0.5-0.6-1-1-1.4
			c-0.1,0-0.1-0.1-0.2,0C27.3,23.4,27.3,23.4,27.4,23.5L27.4,23.5z"/>
	</g>
</g>
</svg>
